G04 #@! TF.FileFunction,Copper,L2,Bot,Signal*
%FSLAX46Y46*%
G04 Gerber Fmt 4.6, Leading zero omitted, Abs format (unit mm)*
G04 Created by KiCad (PCBNEW 4.0.7) date 01/22/18 17:36:01*
%MOMM*%
%LPD*%
G01*
G04 APERTURE LIST*
%ADD10C,0.100000*%
%ADD11C,0.300000*%
%ADD12C,1.506220*%
%ADD13C,0.254000*%
G04 APERTURE END LIST*
D10*
D11*
X165640000Y-93158571D02*
X166140000Y-94658571D01*
X166640000Y-93158571D01*
X167997143Y-94515714D02*
X167925714Y-94587143D01*
X167711428Y-94658571D01*
X167568571Y-94658571D01*
X167354286Y-94587143D01*
X167211428Y-94444286D01*
X167140000Y-94301429D01*
X167068571Y-94015714D01*
X167068571Y-93801429D01*
X167140000Y-93515714D01*
X167211428Y-93372857D01*
X167354286Y-93230000D01*
X167568571Y-93158571D01*
X167711428Y-93158571D01*
X167925714Y-93230000D01*
X167997143Y-93301429D01*
X169497143Y-94515714D02*
X169425714Y-94587143D01*
X169211428Y-94658571D01*
X169068571Y-94658571D01*
X168854286Y-94587143D01*
X168711428Y-94444286D01*
X168640000Y-94301429D01*
X168568571Y-94015714D01*
X168568571Y-93801429D01*
X168640000Y-93515714D01*
X168711428Y-93372857D01*
X168854286Y-93230000D01*
X169068571Y-93158571D01*
X169211428Y-93158571D01*
X169425714Y-93230000D01*
X169497143Y-93301429D01*
D12*
X121920000Y-102870000D03*
X121920000Y-105410000D03*
X121920000Y-107950000D03*
X121920000Y-110490000D03*
X121920000Y-113030000D03*
X121920000Y-115570000D03*
X172720000Y-100330000D03*
X172720000Y-102870000D03*
X172720000Y-105410000D03*
X172720000Y-107950000D03*
X172720000Y-110490000D03*
X172720000Y-113030000D03*
X172720000Y-115570000D03*
X172720000Y-118110000D03*
D13*
G36*
X145008600Y-104546400D02*
X145017285Y-104592559D01*
X145044565Y-104634953D01*
X145086190Y-104663394D01*
X145135600Y-104673400D01*
X152044400Y-104673400D01*
X152090559Y-104664715D01*
X152132953Y-104637435D01*
X152161394Y-104595810D01*
X152171400Y-104546400D01*
X152171400Y-99770000D01*
X171445923Y-99770000D01*
X171319704Y-100124428D01*
X171347627Y-100675946D01*
X171504965Y-101055793D01*
X171746228Y-101124166D01*
X172540395Y-100330000D01*
X172526252Y-100315858D01*
X172705858Y-100136253D01*
X172720000Y-100150395D01*
X172734143Y-100136253D01*
X172913748Y-100315858D01*
X172899605Y-100330000D01*
X172913748Y-100344143D01*
X172734142Y-100523748D01*
X172720000Y-100509605D01*
X171925834Y-101303772D01*
X171994207Y-101545035D01*
X172153985Y-101601935D01*
X171934726Y-101692531D01*
X171543904Y-102082672D01*
X171332131Y-102592676D01*
X171331649Y-103144901D01*
X171542531Y-103655274D01*
X171932672Y-104046096D01*
X172158743Y-104139969D01*
X171934726Y-104232531D01*
X171543904Y-104622672D01*
X171332131Y-105132676D01*
X171331649Y-105684901D01*
X171542531Y-106195274D01*
X171932672Y-106586096D01*
X172158743Y-106679969D01*
X171934726Y-106772531D01*
X171543904Y-107162672D01*
X171332131Y-107672676D01*
X171331649Y-108224901D01*
X171542531Y-108735274D01*
X171932672Y-109126096D01*
X172158743Y-109219969D01*
X171934726Y-109312531D01*
X171543904Y-109702672D01*
X171332131Y-110212676D01*
X171331649Y-110764901D01*
X171542531Y-111275274D01*
X171932672Y-111666096D01*
X172158743Y-111759969D01*
X171934726Y-111852531D01*
X171543904Y-112242672D01*
X171332131Y-112752676D01*
X171331649Y-113304901D01*
X171542531Y-113815274D01*
X171932672Y-114206096D01*
X172158743Y-114299969D01*
X171934726Y-114392531D01*
X171543904Y-114782672D01*
X171332131Y-115292676D01*
X171331649Y-115844901D01*
X171542531Y-116355274D01*
X171932672Y-116746096D01*
X172142880Y-116833382D01*
X171994207Y-116894965D01*
X171925834Y-117136228D01*
X172720000Y-117930395D01*
X172734142Y-117916252D01*
X172913748Y-118095858D01*
X172899605Y-118110000D01*
X172913748Y-118124143D01*
X172734142Y-118303748D01*
X172720000Y-118289605D01*
X171925834Y-119083772D01*
X171994207Y-119325035D01*
X172514428Y-119510296D01*
X173065946Y-119482373D01*
X173280000Y-119393709D01*
X173280000Y-121210000D01*
X121360000Y-121210000D01*
X121360000Y-117904428D01*
X171319704Y-117904428D01*
X171347627Y-118455946D01*
X171504965Y-118835793D01*
X171746228Y-118904166D01*
X172540395Y-118110000D01*
X171746228Y-117315834D01*
X171504965Y-117384207D01*
X171319704Y-117904428D01*
X121360000Y-117904428D01*
X121360000Y-116840491D01*
X121642676Y-116957869D01*
X122194901Y-116958351D01*
X122705274Y-116747469D01*
X123096096Y-116357328D01*
X123307869Y-115847324D01*
X123308351Y-115295099D01*
X123097469Y-114784726D01*
X122707328Y-114393904D01*
X122481257Y-114300031D01*
X122705274Y-114207469D01*
X123096096Y-113817328D01*
X123307869Y-113307324D01*
X123308351Y-112755099D01*
X123097469Y-112244726D01*
X122707328Y-111853904D01*
X122481257Y-111760031D01*
X122705274Y-111667469D01*
X123096096Y-111277328D01*
X123307869Y-110767324D01*
X123308351Y-110215099D01*
X123097469Y-109704726D01*
X122707328Y-109313904D01*
X122481257Y-109220031D01*
X122705274Y-109127469D01*
X123096096Y-108737328D01*
X123307869Y-108227324D01*
X123308351Y-107675099D01*
X123097469Y-107164726D01*
X122707328Y-106773904D01*
X122481257Y-106680031D01*
X122705274Y-106587469D01*
X123096096Y-106197328D01*
X123307869Y-105687324D01*
X123308351Y-105135099D01*
X123097469Y-104624726D01*
X122707328Y-104233904D01*
X122481257Y-104140031D01*
X122705274Y-104047469D01*
X123096096Y-103657328D01*
X123307869Y-103147324D01*
X123308351Y-102595099D01*
X123097469Y-102084726D01*
X122707328Y-101693904D01*
X122197324Y-101482131D01*
X121645099Y-101481649D01*
X121360000Y-101599450D01*
X121360000Y-99770000D01*
X145008600Y-99770000D01*
X145008600Y-104546400D01*
X145008600Y-104546400D01*
G37*
X145008600Y-104546400D02*
X145017285Y-104592559D01*
X145044565Y-104634953D01*
X145086190Y-104663394D01*
X145135600Y-104673400D01*
X152044400Y-104673400D01*
X152090559Y-104664715D01*
X152132953Y-104637435D01*
X152161394Y-104595810D01*
X152171400Y-104546400D01*
X152171400Y-99770000D01*
X171445923Y-99770000D01*
X171319704Y-100124428D01*
X171347627Y-100675946D01*
X171504965Y-101055793D01*
X171746228Y-101124166D01*
X172540395Y-100330000D01*
X172526252Y-100315858D01*
X172705858Y-100136253D01*
X172720000Y-100150395D01*
X172734143Y-100136253D01*
X172913748Y-100315858D01*
X172899605Y-100330000D01*
X172913748Y-100344143D01*
X172734142Y-100523748D01*
X172720000Y-100509605D01*
X171925834Y-101303772D01*
X171994207Y-101545035D01*
X172153985Y-101601935D01*
X171934726Y-101692531D01*
X171543904Y-102082672D01*
X171332131Y-102592676D01*
X171331649Y-103144901D01*
X171542531Y-103655274D01*
X171932672Y-104046096D01*
X172158743Y-104139969D01*
X171934726Y-104232531D01*
X171543904Y-104622672D01*
X171332131Y-105132676D01*
X171331649Y-105684901D01*
X171542531Y-106195274D01*
X171932672Y-106586096D01*
X172158743Y-106679969D01*
X171934726Y-106772531D01*
X171543904Y-107162672D01*
X171332131Y-107672676D01*
X171331649Y-108224901D01*
X171542531Y-108735274D01*
X171932672Y-109126096D01*
X172158743Y-109219969D01*
X171934726Y-109312531D01*
X171543904Y-109702672D01*
X171332131Y-110212676D01*
X171331649Y-110764901D01*
X171542531Y-111275274D01*
X171932672Y-111666096D01*
X172158743Y-111759969D01*
X171934726Y-111852531D01*
X171543904Y-112242672D01*
X171332131Y-112752676D01*
X171331649Y-113304901D01*
X171542531Y-113815274D01*
X171932672Y-114206096D01*
X172158743Y-114299969D01*
X171934726Y-114392531D01*
X171543904Y-114782672D01*
X171332131Y-115292676D01*
X171331649Y-115844901D01*
X171542531Y-116355274D01*
X171932672Y-116746096D01*
X172142880Y-116833382D01*
X171994207Y-116894965D01*
X171925834Y-117136228D01*
X172720000Y-117930395D01*
X172734142Y-117916252D01*
X172913748Y-118095858D01*
X172899605Y-118110000D01*
X172913748Y-118124143D01*
X172734142Y-118303748D01*
X172720000Y-118289605D01*
X171925834Y-119083772D01*
X171994207Y-119325035D01*
X172514428Y-119510296D01*
X173065946Y-119482373D01*
X173280000Y-119393709D01*
X173280000Y-121210000D01*
X121360000Y-121210000D01*
X121360000Y-117904428D01*
X171319704Y-117904428D01*
X171347627Y-118455946D01*
X171504965Y-118835793D01*
X171746228Y-118904166D01*
X172540395Y-118110000D01*
X171746228Y-117315834D01*
X171504965Y-117384207D01*
X171319704Y-117904428D01*
X121360000Y-117904428D01*
X121360000Y-116840491D01*
X121642676Y-116957869D01*
X122194901Y-116958351D01*
X122705274Y-116747469D01*
X123096096Y-116357328D01*
X123307869Y-115847324D01*
X123308351Y-115295099D01*
X123097469Y-114784726D01*
X122707328Y-114393904D01*
X122481257Y-114300031D01*
X122705274Y-114207469D01*
X123096096Y-113817328D01*
X123307869Y-113307324D01*
X123308351Y-112755099D01*
X123097469Y-112244726D01*
X122707328Y-111853904D01*
X122481257Y-111760031D01*
X122705274Y-111667469D01*
X123096096Y-111277328D01*
X123307869Y-110767324D01*
X123308351Y-110215099D01*
X123097469Y-109704726D01*
X122707328Y-109313904D01*
X122481257Y-109220031D01*
X122705274Y-109127469D01*
X123096096Y-108737328D01*
X123307869Y-108227324D01*
X123308351Y-107675099D01*
X123097469Y-107164726D01*
X122707328Y-106773904D01*
X122481257Y-106680031D01*
X122705274Y-106587469D01*
X123096096Y-106197328D01*
X123307869Y-105687324D01*
X123308351Y-105135099D01*
X123097469Y-104624726D01*
X122707328Y-104233904D01*
X122481257Y-104140031D01*
X122705274Y-104047469D01*
X123096096Y-103657328D01*
X123307869Y-103147324D01*
X123308351Y-102595099D01*
X123097469Y-102084726D01*
X122707328Y-101693904D01*
X122197324Y-101482131D01*
X121645099Y-101481649D01*
X121360000Y-101599450D01*
X121360000Y-99770000D01*
X145008600Y-99770000D01*
X145008600Y-104546400D01*
M02*
