G04 #@! TF.FileFunction,Legend,Top*
%FSLAX46Y46*%
G04 Gerber Fmt 4.6, Leading zero omitted, Abs format (unit mm)*
G04 Created by KiCad (PCBNEW 4.0.7) date 01/22/18 17:36:01*
%MOMM*%
%LPD*%
G01*
G04 APERTURE LIST*
%ADD10C,0.100000*%
%ADD11C,0.300000*%
%ADD12C,0.127000*%
%ADD13C,0.120000*%
%ADD14C,0.400000*%
%ADD15C,0.152400*%
%ADD16C,0.250000*%
G04 APERTURE END LIST*
D10*
D11*
X124769429Y-116502571D02*
X124055143Y-116502571D01*
X124055143Y-115002571D01*
X125269429Y-116502571D02*
X125269429Y-115002571D01*
X126126572Y-116502571D01*
X126126572Y-115002571D01*
X126769429Y-116074000D02*
X127483715Y-116074000D01*
X126626572Y-116502571D02*
X127126572Y-115002571D01*
X127626572Y-116502571D01*
X127769429Y-116645429D02*
X128912286Y-116645429D01*
X129269429Y-115716857D02*
X129769429Y-115716857D01*
X129983715Y-116502571D02*
X129269429Y-116502571D01*
X129269429Y-115002571D01*
X129983715Y-115002571D01*
X130626572Y-116502571D02*
X130626572Y-115002571D01*
X131483715Y-116502571D01*
X131483715Y-115002571D01*
X123840857Y-112462571D02*
X124698000Y-112462571D01*
X124269429Y-113962571D02*
X124269429Y-112462571D01*
X125198000Y-113962571D02*
X125198000Y-112462571D01*
X125912286Y-113962571D02*
X125912286Y-112462571D01*
X126412286Y-113534000D01*
X126912286Y-112462571D01*
X126912286Y-113962571D01*
X127626572Y-113176857D02*
X128126572Y-113176857D01*
X128340858Y-113962571D02*
X127626572Y-113962571D01*
X127626572Y-112462571D01*
X128340858Y-112462571D01*
X128983715Y-113962571D02*
X128983715Y-112462571D01*
X129555143Y-112462571D01*
X129698001Y-112534000D01*
X129769429Y-112605429D01*
X129840858Y-112748286D01*
X129840858Y-112962571D01*
X129769429Y-113105429D01*
X129698001Y-113176857D01*
X129555143Y-113248286D01*
X128983715Y-113248286D01*
X130483715Y-112462571D02*
X130483715Y-113676857D01*
X130555143Y-113819714D01*
X130626572Y-113891143D01*
X130769429Y-113962571D01*
X131055143Y-113962571D01*
X131198001Y-113891143D01*
X131269429Y-113819714D01*
X131340858Y-113676857D01*
X131340858Y-112462571D01*
X132769430Y-113962571D02*
X132055144Y-113962571D01*
X132055144Y-112462571D01*
X133198001Y-113891143D02*
X133412287Y-113962571D01*
X133769430Y-113962571D01*
X133912287Y-113891143D01*
X133983716Y-113819714D01*
X134055144Y-113676857D01*
X134055144Y-113534000D01*
X133983716Y-113391143D01*
X133912287Y-113319714D01*
X133769430Y-113248286D01*
X133483716Y-113176857D01*
X133340858Y-113105429D01*
X133269430Y-113034000D01*
X133198001Y-112891143D01*
X133198001Y-112748286D01*
X133269430Y-112605429D01*
X133340858Y-112534000D01*
X133483716Y-112462571D01*
X133840858Y-112462571D01*
X134055144Y-112534000D01*
X134698001Y-113176857D02*
X135198001Y-113176857D01*
X135412287Y-113962571D02*
X134698001Y-113962571D01*
X134698001Y-112462571D01*
X135412287Y-112462571D01*
X124912286Y-111422571D02*
X124412286Y-110708286D01*
X124055143Y-111422571D02*
X124055143Y-109922571D01*
X124626571Y-109922571D01*
X124769429Y-109994000D01*
X124840857Y-110065429D01*
X124912286Y-110208286D01*
X124912286Y-110422571D01*
X124840857Y-110565429D01*
X124769429Y-110636857D01*
X124626571Y-110708286D01*
X124055143Y-110708286D01*
X125412286Y-109922571D02*
X126412286Y-111422571D01*
X126412286Y-109922571D02*
X125412286Y-111422571D01*
X126983714Y-111422571D02*
X126983714Y-109922571D01*
X127340857Y-109922571D01*
X127555142Y-109994000D01*
X127698000Y-110136857D01*
X127769428Y-110279714D01*
X127840857Y-110565429D01*
X127840857Y-110779714D01*
X127769428Y-111065429D01*
X127698000Y-111208286D01*
X127555142Y-111351143D01*
X127340857Y-111422571D01*
X126983714Y-111422571D01*
X123840857Y-107128571D02*
X124698000Y-107128571D01*
X124269429Y-108628571D02*
X124269429Y-107128571D01*
X125055143Y-107128571D02*
X126055143Y-108628571D01*
X126055143Y-107128571D02*
X125055143Y-108628571D01*
X126626571Y-108628571D02*
X126626571Y-107128571D01*
X126983714Y-107128571D01*
X127197999Y-107200000D01*
X127340857Y-107342857D01*
X127412285Y-107485714D01*
X127483714Y-107771429D01*
X127483714Y-107985714D01*
X127412285Y-108271429D01*
X127340857Y-108414286D01*
X127197999Y-108557143D01*
X126983714Y-108628571D01*
X126626571Y-108628571D01*
X123983714Y-106017143D02*
X124198000Y-106088571D01*
X124555143Y-106088571D01*
X124698000Y-106017143D01*
X124769429Y-105945714D01*
X124840857Y-105802857D01*
X124840857Y-105660000D01*
X124769429Y-105517143D01*
X124698000Y-105445714D01*
X124555143Y-105374286D01*
X124269429Y-105302857D01*
X124126571Y-105231429D01*
X124055143Y-105160000D01*
X123983714Y-105017143D01*
X123983714Y-104874286D01*
X124055143Y-104731429D01*
X124126571Y-104660000D01*
X124269429Y-104588571D01*
X124626571Y-104588571D01*
X124840857Y-104660000D01*
X125412285Y-105660000D02*
X126126571Y-105660000D01*
X125269428Y-106088571D02*
X125769428Y-104588571D01*
X126269428Y-106088571D01*
X127269428Y-105302857D02*
X126769428Y-105302857D01*
X126769428Y-106088571D02*
X126769428Y-104588571D01*
X127483714Y-104588571D01*
X128055142Y-105302857D02*
X128555142Y-105302857D01*
X128769428Y-106088571D02*
X128055142Y-106088571D01*
X128055142Y-104588571D01*
X128769428Y-104588571D01*
X129912285Y-105302857D02*
X130126571Y-105374286D01*
X130197999Y-105445714D01*
X130269428Y-105588571D01*
X130269428Y-105802857D01*
X130197999Y-105945714D01*
X130126571Y-106017143D01*
X129983713Y-106088571D01*
X129412285Y-106088571D01*
X129412285Y-104588571D01*
X129912285Y-104588571D01*
X130055142Y-104660000D01*
X130126571Y-104731429D01*
X130197999Y-104874286D01*
X130197999Y-105017143D01*
X130126571Y-105160000D01*
X130055142Y-105231429D01*
X129912285Y-105302857D01*
X129412285Y-105302857D01*
X131197999Y-104588571D02*
X131483713Y-104588571D01*
X131626571Y-104660000D01*
X131769428Y-104802857D01*
X131840856Y-105088571D01*
X131840856Y-105588571D01*
X131769428Y-105874286D01*
X131626571Y-106017143D01*
X131483713Y-106088571D01*
X131197999Y-106088571D01*
X131055142Y-106017143D01*
X130912285Y-105874286D01*
X130840856Y-105588571D01*
X130840856Y-105088571D01*
X130912285Y-104802857D01*
X131055142Y-104660000D01*
X131197999Y-104588571D01*
X132769428Y-104588571D02*
X133055142Y-104588571D01*
X133198000Y-104660000D01*
X133340857Y-104802857D01*
X133412285Y-105088571D01*
X133412285Y-105588571D01*
X133340857Y-105874286D01*
X133198000Y-106017143D01*
X133055142Y-106088571D01*
X132769428Y-106088571D01*
X132626571Y-106017143D01*
X132483714Y-105874286D01*
X132412285Y-105588571D01*
X132412285Y-105088571D01*
X132483714Y-104802857D01*
X132626571Y-104660000D01*
X132769428Y-104588571D01*
X133840857Y-104588571D02*
X134698000Y-104588571D01*
X134269429Y-106088571D02*
X134269429Y-104588571D01*
X124912286Y-103548571D02*
X124412286Y-102834286D01*
X124055143Y-103548571D02*
X124055143Y-102048571D01*
X124626571Y-102048571D01*
X124769429Y-102120000D01*
X124840857Y-102191429D01*
X124912286Y-102334286D01*
X124912286Y-102548571D01*
X124840857Y-102691429D01*
X124769429Y-102762857D01*
X124626571Y-102834286D01*
X124055143Y-102834286D01*
X125555143Y-102762857D02*
X126055143Y-102762857D01*
X126269429Y-103548571D02*
X125555143Y-103548571D01*
X125555143Y-102048571D01*
X126269429Y-102048571D01*
X126840857Y-103477143D02*
X127055143Y-103548571D01*
X127412286Y-103548571D01*
X127555143Y-103477143D01*
X127626572Y-103405714D01*
X127698000Y-103262857D01*
X127698000Y-103120000D01*
X127626572Y-102977143D01*
X127555143Y-102905714D01*
X127412286Y-102834286D01*
X127126572Y-102762857D01*
X126983714Y-102691429D01*
X126912286Y-102620000D01*
X126840857Y-102477143D01*
X126840857Y-102334286D01*
X126912286Y-102191429D01*
X126983714Y-102120000D01*
X127126572Y-102048571D01*
X127483714Y-102048571D01*
X127698000Y-102120000D01*
X128340857Y-102762857D02*
X128840857Y-102762857D01*
X129055143Y-103548571D02*
X128340857Y-103548571D01*
X128340857Y-102048571D01*
X129055143Y-102048571D01*
X129483714Y-102048571D02*
X130340857Y-102048571D01*
X129912286Y-103548571D02*
X129912286Y-102048571D01*
X123698000Y-101790000D02*
X130483714Y-101790000D01*
X167767143Y-117360000D02*
X167624286Y-117288571D01*
X167410000Y-117288571D01*
X167195715Y-117360000D01*
X167052857Y-117502857D01*
X166981429Y-117645714D01*
X166910000Y-117931429D01*
X166910000Y-118145714D01*
X166981429Y-118431429D01*
X167052857Y-118574286D01*
X167195715Y-118717143D01*
X167410000Y-118788571D01*
X167552857Y-118788571D01*
X167767143Y-118717143D01*
X167838572Y-118645714D01*
X167838572Y-118145714D01*
X167552857Y-118145714D01*
X168481429Y-118788571D02*
X168481429Y-117288571D01*
X169338572Y-118788571D01*
X169338572Y-117288571D01*
X170052858Y-118788571D02*
X170052858Y-117288571D01*
X170410001Y-117288571D01*
X170624286Y-117360000D01*
X170767144Y-117502857D01*
X170838572Y-117645714D01*
X170910001Y-117931429D01*
X170910001Y-118145714D01*
X170838572Y-118431429D01*
X170767144Y-118574286D01*
X170624286Y-118717143D01*
X170410001Y-118788571D01*
X170052858Y-118788571D01*
X164751143Y-114748571D02*
X165251143Y-116248571D01*
X165751143Y-114748571D01*
X167108286Y-116105714D02*
X167036857Y-116177143D01*
X166822571Y-116248571D01*
X166679714Y-116248571D01*
X166465429Y-116177143D01*
X166322571Y-116034286D01*
X166251143Y-115891429D01*
X166179714Y-115605714D01*
X166179714Y-115391429D01*
X166251143Y-115105714D01*
X166322571Y-114962857D01*
X166465429Y-114820000D01*
X166679714Y-114748571D01*
X166822571Y-114748571D01*
X167036857Y-114820000D01*
X167108286Y-114891429D01*
X168608286Y-116105714D02*
X168536857Y-116177143D01*
X168322571Y-116248571D01*
X168179714Y-116248571D01*
X167965429Y-116177143D01*
X167822571Y-116034286D01*
X167751143Y-115891429D01*
X167679714Y-115605714D01*
X167679714Y-115391429D01*
X167751143Y-115105714D01*
X167822571Y-114962857D01*
X167965429Y-114820000D01*
X168179714Y-114748571D01*
X168322571Y-114748571D01*
X168536857Y-114820000D01*
X168608286Y-114891429D01*
X169251143Y-116248571D02*
X169251143Y-114748571D01*
X170251143Y-114748571D02*
X170536857Y-114748571D01*
X170679715Y-114820000D01*
X170822572Y-114962857D01*
X170894000Y-115248571D01*
X170894000Y-115748571D01*
X170822572Y-116034286D01*
X170679715Y-116177143D01*
X170536857Y-116248571D01*
X170251143Y-116248571D01*
X170108286Y-116177143D01*
X169965429Y-116034286D01*
X169894000Y-115748571D01*
X169894000Y-115248571D01*
X169965429Y-114962857D01*
X170108286Y-114820000D01*
X170251143Y-114748571D01*
X166834572Y-113637143D02*
X167048858Y-113708571D01*
X167406001Y-113708571D01*
X167548858Y-113637143D01*
X167620287Y-113565714D01*
X167691715Y-113422857D01*
X167691715Y-113280000D01*
X167620287Y-113137143D01*
X167548858Y-113065714D01*
X167406001Y-112994286D01*
X167120287Y-112922857D01*
X166977429Y-112851429D01*
X166906001Y-112780000D01*
X166834572Y-112637143D01*
X166834572Y-112494286D01*
X166906001Y-112351429D01*
X166977429Y-112280000D01*
X167120287Y-112208571D01*
X167477429Y-112208571D01*
X167691715Y-112280000D01*
X168334572Y-113708571D02*
X168334572Y-112208571D01*
X168691715Y-112208571D01*
X168906000Y-112280000D01*
X169048858Y-112422857D01*
X169120286Y-112565714D01*
X169191715Y-112851429D01*
X169191715Y-113065714D01*
X169120286Y-113351429D01*
X169048858Y-113494286D01*
X168906000Y-113637143D01*
X168691715Y-113708571D01*
X168334572Y-113708571D01*
X169763143Y-113280000D02*
X170477429Y-113280000D01*
X169620286Y-113708571D02*
X170120286Y-112208571D01*
X170620286Y-113708571D01*
X166870286Y-111097143D02*
X167084572Y-111168571D01*
X167441715Y-111168571D01*
X167584572Y-111097143D01*
X167656001Y-111025714D01*
X167727429Y-110882857D01*
X167727429Y-110740000D01*
X167656001Y-110597143D01*
X167584572Y-110525714D01*
X167441715Y-110454286D01*
X167156001Y-110382857D01*
X167013143Y-110311429D01*
X166941715Y-110240000D01*
X166870286Y-110097143D01*
X166870286Y-109954286D01*
X166941715Y-109811429D01*
X167013143Y-109740000D01*
X167156001Y-109668571D01*
X167513143Y-109668571D01*
X167727429Y-109740000D01*
X169227429Y-111025714D02*
X169156000Y-111097143D01*
X168941714Y-111168571D01*
X168798857Y-111168571D01*
X168584572Y-111097143D01*
X168441714Y-110954286D01*
X168370286Y-110811429D01*
X168298857Y-110525714D01*
X168298857Y-110311429D01*
X168370286Y-110025714D01*
X168441714Y-109882857D01*
X168584572Y-109740000D01*
X168798857Y-109668571D01*
X168941714Y-109668571D01*
X169156000Y-109740000D01*
X169227429Y-109811429D01*
X170584572Y-111168571D02*
X169870286Y-111168571D01*
X169870286Y-109668571D01*
X162985143Y-107842857D02*
X163485143Y-107842857D01*
X163699429Y-108628571D02*
X162985143Y-108628571D01*
X162985143Y-107128571D01*
X163699429Y-107128571D01*
X164199429Y-107128571D02*
X165199429Y-108628571D01*
X165199429Y-107128571D02*
X164199429Y-108628571D01*
X165556571Y-107128571D02*
X166413714Y-107128571D01*
X165985143Y-108628571D02*
X165985143Y-107128571D01*
X166556571Y-108771429D02*
X167699428Y-108771429D01*
X168056571Y-108628571D02*
X168056571Y-107128571D01*
X168770857Y-108628571D02*
X168770857Y-107128571D01*
X169628000Y-108628571D01*
X169628000Y-107128571D01*
X170128000Y-107128571D02*
X170985143Y-107128571D01*
X170556572Y-108628571D02*
X170556572Y-107128571D01*
X166013143Y-104588571D02*
X166513143Y-106088571D01*
X167013143Y-104588571D01*
X168013143Y-105302857D02*
X168227429Y-105374286D01*
X168298857Y-105445714D01*
X168370286Y-105588571D01*
X168370286Y-105802857D01*
X168298857Y-105945714D01*
X168227429Y-106017143D01*
X168084571Y-106088571D01*
X167513143Y-106088571D01*
X167513143Y-104588571D01*
X168013143Y-104588571D01*
X168156000Y-104660000D01*
X168227429Y-104731429D01*
X168298857Y-104874286D01*
X168298857Y-105017143D01*
X168227429Y-105160000D01*
X168156000Y-105231429D01*
X168013143Y-105302857D01*
X167513143Y-105302857D01*
X168941714Y-105660000D02*
X169656000Y-105660000D01*
X168798857Y-106088571D02*
X169298857Y-104588571D01*
X169798857Y-106088571D01*
X170298857Y-106088571D02*
X170298857Y-104588571D01*
X171156000Y-106088571D02*
X170513143Y-105231429D01*
X171156000Y-104588571D02*
X170298857Y-105445714D01*
X168021143Y-99834000D02*
X167878286Y-99762571D01*
X167664000Y-99762571D01*
X167449715Y-99834000D01*
X167306857Y-99976857D01*
X167235429Y-100119714D01*
X167164000Y-100405429D01*
X167164000Y-100619714D01*
X167235429Y-100905429D01*
X167306857Y-101048286D01*
X167449715Y-101191143D01*
X167664000Y-101262571D01*
X167806857Y-101262571D01*
X168021143Y-101191143D01*
X168092572Y-101119714D01*
X168092572Y-100619714D01*
X167806857Y-100619714D01*
X168735429Y-101262571D02*
X168735429Y-99762571D01*
X169592572Y-101262571D01*
X169592572Y-99762571D01*
X170306858Y-101262571D02*
X170306858Y-99762571D01*
X170664001Y-99762571D01*
X170878286Y-99834000D01*
X171021144Y-99976857D01*
X171092572Y-100119714D01*
X171164001Y-100405429D01*
X171164001Y-100619714D01*
X171092572Y-100905429D01*
X171021144Y-101048286D01*
X170878286Y-101191143D01*
X170664001Y-101262571D01*
X170306858Y-101262571D01*
X167164000Y-102048571D02*
X167664000Y-103548571D01*
X168164000Y-102048571D01*
X169521143Y-103405714D02*
X169449714Y-103477143D01*
X169235428Y-103548571D01*
X169092571Y-103548571D01*
X168878286Y-103477143D01*
X168735428Y-103334286D01*
X168664000Y-103191429D01*
X168592571Y-102905714D01*
X168592571Y-102691429D01*
X168664000Y-102405714D01*
X168735428Y-102262857D01*
X168878286Y-102120000D01*
X169092571Y-102048571D01*
X169235428Y-102048571D01*
X169449714Y-102120000D01*
X169521143Y-102191429D01*
X171021143Y-103405714D02*
X170949714Y-103477143D01*
X170735428Y-103548571D01*
X170592571Y-103548571D01*
X170378286Y-103477143D01*
X170235428Y-103334286D01*
X170164000Y-103191429D01*
X170092571Y-102905714D01*
X170092571Y-102691429D01*
X170164000Y-102405714D01*
X170235428Y-102262857D01*
X170378286Y-102120000D01*
X170592571Y-102048571D01*
X170735428Y-102048571D01*
X170949714Y-102120000D01*
X171021143Y-102191429D01*
D12*
X155818840Y-104668320D02*
X157617160Y-104668320D01*
X157617160Y-104668320D02*
X157617160Y-101071680D01*
X157617160Y-101071680D02*
X155818840Y-101071680D01*
X155818840Y-101071680D02*
X155818840Y-104668320D01*
X156601160Y-113517680D02*
X154802840Y-113517680D01*
X154802840Y-113517680D02*
X154802840Y-117114320D01*
X154802840Y-117114320D02*
X156601160Y-117114320D01*
X156601160Y-117114320D02*
X156601160Y-113517680D01*
X123169680Y-101620320D02*
X123169680Y-116819680D01*
X123169680Y-116819680D02*
X120670320Y-116819680D01*
X120670320Y-116819680D02*
X120670320Y-101620320D01*
X120670320Y-101620320D02*
X123169680Y-101620320D01*
X120015000Y-100965000D02*
X120015000Y-101600000D01*
X120015000Y-101600000D02*
X120650000Y-102235000D01*
X120650000Y-102235000D02*
X121285000Y-101600000D01*
X121285000Y-101600000D02*
X120650000Y-100965000D01*
X120650000Y-100965000D02*
X120015000Y-100965000D01*
X138800840Y-107716320D02*
X140599160Y-107716320D01*
X140599160Y-107716320D02*
X140599160Y-104119680D01*
X140599160Y-104119680D02*
X138800840Y-104119680D01*
X138800840Y-104119680D02*
X138800840Y-107716320D01*
D13*
X153390000Y-99680000D02*
X153390000Y-100050000D01*
D14*
X154290000Y-113880000D02*
G75*
G03X154290000Y-113880000I-200000J0D01*
G01*
D13*
X153390000Y-113410000D02*
X153390000Y-113680000D01*
X153390000Y-113680000D02*
X151120000Y-113680000D01*
X143790000Y-100050000D02*
X143790000Y-99680000D01*
X143790000Y-99680000D02*
X153390000Y-99680000D01*
X146060000Y-113680000D02*
X143790000Y-113680000D01*
X143790000Y-113680000D02*
X143790000Y-113410000D01*
D12*
X173969680Y-99080320D02*
X173969680Y-119359680D01*
X173969680Y-119359680D02*
X171470320Y-119359680D01*
X171470320Y-119359680D02*
X171470320Y-99080320D01*
X171470320Y-99080320D02*
X173969680Y-99080320D01*
X170815000Y-98425000D02*
X170815000Y-99060000D01*
X170815000Y-99060000D02*
X171450000Y-99695000D01*
X171450000Y-99695000D02*
X172085000Y-99060000D01*
X172085000Y-99060000D02*
X171450000Y-98425000D01*
X171450000Y-98425000D02*
X170815000Y-98425000D01*
D15*
X156548667Y-105772857D02*
X156500286Y-105821238D01*
X156355143Y-105869619D01*
X156258381Y-105869619D01*
X156113239Y-105821238D01*
X156016477Y-105724476D01*
X155968096Y-105627714D01*
X155919715Y-105434190D01*
X155919715Y-105289048D01*
X155968096Y-105095524D01*
X156016477Y-104998762D01*
X156113239Y-104902000D01*
X156258381Y-104853619D01*
X156355143Y-104853619D01*
X156500286Y-104902000D01*
X156548667Y-104950381D01*
X157516286Y-105869619D02*
X156935715Y-105869619D01*
X157226001Y-105869619D02*
X157226001Y-104853619D01*
X157129239Y-104998762D01*
X157032477Y-105095524D01*
X156935715Y-105143905D01*
X158532286Y-104297238D02*
X159209619Y-104297238D01*
X158145238Y-104539142D02*
X158870952Y-104781047D01*
X158870952Y-104152095D01*
X159112857Y-103765047D02*
X159161238Y-103716666D01*
X159209619Y-103765047D01*
X159161238Y-103813428D01*
X159112857Y-103765047D01*
X159209619Y-103765047D01*
X158193619Y-103377999D02*
X158193619Y-102700666D01*
X159209619Y-103136094D01*
X158532286Y-101878190D02*
X159209619Y-101878190D01*
X158532286Y-102313618D02*
X159064476Y-102313618D01*
X159161238Y-102265237D01*
X159209619Y-102168475D01*
X159209619Y-102023333D01*
X159161238Y-101926571D01*
X159112857Y-101878190D01*
X158677429Y-101055714D02*
X158677429Y-101394380D01*
X159209619Y-101394380D02*
X158193619Y-101394380D01*
X158193619Y-100910571D01*
X155532667Y-112884857D02*
X155484286Y-112933238D01*
X155339143Y-112981619D01*
X155242381Y-112981619D01*
X155097239Y-112933238D01*
X155000477Y-112836476D01*
X154952096Y-112739714D01*
X154903715Y-112546190D01*
X154903715Y-112401048D01*
X154952096Y-112207524D01*
X155000477Y-112110762D01*
X155097239Y-112014000D01*
X155242381Y-111965619D01*
X155339143Y-111965619D01*
X155484286Y-112014000D01*
X155532667Y-112062381D01*
X155919715Y-112062381D02*
X155968096Y-112014000D01*
X156064858Y-111965619D01*
X156306762Y-111965619D01*
X156403524Y-112014000D01*
X156451905Y-112062381D01*
X156500286Y-112159143D01*
X156500286Y-112255905D01*
X156451905Y-112401048D01*
X155871334Y-112981619D01*
X156500286Y-112981619D01*
X158193619Y-116888381D02*
X158193619Y-117468952D01*
X158193619Y-117178666D02*
X157177619Y-117178666D01*
X157322762Y-117275428D01*
X157419524Y-117372190D01*
X157467905Y-117468952D01*
X157177619Y-116259428D02*
X157177619Y-116162667D01*
X157226000Y-116065905D01*
X157274381Y-116017524D01*
X157371143Y-115969143D01*
X157564667Y-115920762D01*
X157806571Y-115920762D01*
X158000095Y-115969143D01*
X158096857Y-116017524D01*
X158145238Y-116065905D01*
X158193619Y-116162667D01*
X158193619Y-116259428D01*
X158145238Y-116356190D01*
X158096857Y-116404571D01*
X158000095Y-116452952D01*
X157806571Y-116501333D01*
X157564667Y-116501333D01*
X157371143Y-116452952D01*
X157274381Y-116404571D01*
X157226000Y-116356190D01*
X157177619Y-116259428D01*
X157177619Y-115291809D02*
X157177619Y-115195048D01*
X157226000Y-115098286D01*
X157274381Y-115049905D01*
X157371143Y-115001524D01*
X157564667Y-114953143D01*
X157806571Y-114953143D01*
X158000095Y-115001524D01*
X158096857Y-115049905D01*
X158145238Y-115098286D01*
X158193619Y-115195048D01*
X158193619Y-115291809D01*
X158145238Y-115388571D01*
X158096857Y-115436952D01*
X158000095Y-115485333D01*
X157806571Y-115533714D01*
X157564667Y-115533714D01*
X157371143Y-115485333D01*
X157274381Y-115436952D01*
X157226000Y-115388571D01*
X157177619Y-115291809D01*
X157516286Y-114517714D02*
X158193619Y-114517714D01*
X157613048Y-114517714D02*
X157564667Y-114469333D01*
X157516286Y-114372571D01*
X157516286Y-114227429D01*
X157564667Y-114130667D01*
X157661429Y-114082286D01*
X158193619Y-114082286D01*
X157661429Y-113259810D02*
X157661429Y-113598476D01*
X158193619Y-113598476D02*
X157177619Y-113598476D01*
X157177619Y-113114667D01*
X121581333Y-117553619D02*
X121581333Y-118279333D01*
X121532953Y-118424476D01*
X121436191Y-118521238D01*
X121291048Y-118569619D01*
X121194286Y-118569619D01*
X122016762Y-117650381D02*
X122065143Y-117602000D01*
X122161905Y-117553619D01*
X122403809Y-117553619D01*
X122500571Y-117602000D01*
X122548952Y-117650381D01*
X122597333Y-117747143D01*
X122597333Y-117843905D01*
X122548952Y-117989048D01*
X121968381Y-118569619D01*
X122597333Y-118569619D01*
X138381619Y-106087333D02*
X137897810Y-106425999D01*
X138381619Y-106667904D02*
X137365619Y-106667904D01*
X137365619Y-106280857D01*
X137414000Y-106184095D01*
X137462381Y-106135714D01*
X137559143Y-106087333D01*
X137704286Y-106087333D01*
X137801048Y-106135714D01*
X137849429Y-106184095D01*
X137897810Y-106280857D01*
X137897810Y-106667904D01*
X138381619Y-105119714D02*
X138381619Y-105700285D01*
X138381619Y-105409999D02*
X137365619Y-105409999D01*
X137510762Y-105506761D01*
X137607524Y-105603523D01*
X137655905Y-105700285D01*
D13*
X145897714Y-110340857D02*
X145897714Y-111312286D01*
X145954857Y-111426571D01*
X146012000Y-111483714D01*
X146126286Y-111540857D01*
X146354857Y-111540857D01*
X146469143Y-111483714D01*
X146526286Y-111426571D01*
X146583429Y-111312286D01*
X146583429Y-110340857D01*
X147783429Y-111540857D02*
X147097714Y-111540857D01*
X147440572Y-111540857D02*
X147440572Y-110340857D01*
X147326286Y-110512286D01*
X147212000Y-110626571D01*
X147097714Y-110683714D01*
D16*
X144129715Y-120856286D02*
X144034477Y-120951524D01*
X143748762Y-121046762D01*
X143558286Y-121046762D01*
X143272572Y-120951524D01*
X143082096Y-120761048D01*
X142986857Y-120570571D01*
X142891619Y-120189619D01*
X142891619Y-119903905D01*
X142986857Y-119522952D01*
X143082096Y-119332476D01*
X143272572Y-119142000D01*
X143558286Y-119046762D01*
X143748762Y-119046762D01*
X144034477Y-119142000D01*
X144129715Y-119237238D01*
X144891619Y-120475333D02*
X145844000Y-120475333D01*
X144701143Y-121046762D02*
X145367810Y-119046762D01*
X146034477Y-121046762D01*
X146701143Y-121046762D02*
X146701143Y-119046762D01*
X147367810Y-120475333D01*
X148034477Y-119046762D01*
X148034477Y-121046762D01*
X148986857Y-120284857D02*
X150510667Y-120284857D01*
X151463047Y-121046762D02*
X151463047Y-119046762D01*
X152129714Y-120475333D01*
X152796381Y-119046762D01*
X152796381Y-121046762D01*
X154034476Y-119903905D02*
X153844000Y-119808667D01*
X153748761Y-119713429D01*
X153653523Y-119522952D01*
X153653523Y-119427714D01*
X153748761Y-119237238D01*
X153844000Y-119142000D01*
X154034476Y-119046762D01*
X154415428Y-119046762D01*
X154605904Y-119142000D01*
X154701142Y-119237238D01*
X154796381Y-119427714D01*
X154796381Y-119522952D01*
X154701142Y-119713429D01*
X154605904Y-119808667D01*
X154415428Y-119903905D01*
X154034476Y-119903905D01*
X153844000Y-119999143D01*
X153748761Y-120094381D01*
X153653523Y-120284857D01*
X153653523Y-120665810D01*
X153748761Y-120856286D01*
X153844000Y-120951524D01*
X154034476Y-121046762D01*
X154415428Y-121046762D01*
X154605904Y-120951524D01*
X154701142Y-120856286D01*
X154796381Y-120665810D01*
X154796381Y-120284857D01*
X154701142Y-120094381D01*
X154605904Y-119999143D01*
X154415428Y-119903905D01*
D15*
X172381333Y-119585619D02*
X172381333Y-120311333D01*
X172332953Y-120456476D01*
X172236191Y-120553238D01*
X172091048Y-120601619D01*
X171994286Y-120601619D01*
X173397333Y-120601619D02*
X172816762Y-120601619D01*
X173107048Y-120601619D02*
X173107048Y-119585619D01*
X173010286Y-119730762D01*
X172913524Y-119827524D01*
X172816762Y-119875905D01*
M02*
